<svg width="70" height="70" viewBox="0 0 70 70" version="1.1" xmlns="http://www.w3.org/2000/svg" xmlns:xlink="http://www.w3.org/1999/xlink" xmlns:figma="http://www.figma.com/figma/ns">
<title>allo-yellow</title>
<desc>Created using Figma</desc>
<g id="Canvas" transform="translate(-920 148)" figma:type="canvas">
<g id="allo-yellow" style="mix-blend-mode:normal;" figma:type="frame">
<g id="Ellipse 3" style="mix-blend-mode:normal;" figma:type="ellipse">
<use xlink:href="#path0_fill" transform="translate(920 -148)" fill="#F5B900" style="mix-blend-mode:normal;"/>
</g>
<g id="Union" style="mix-blend-mode:normal;" figma:type="vector">
<use xlink:href="#path1_fill" transform="translate(941 -127)" fill="#FFFFFF" style="mix-blend-mode:normal;"/>
</g>
</g>
</g>
<defs>
<path d="M358.2,207.8 C359.7,220.4 361.7,232.4 362.5,244.5 C363.2,253.8 358.1,260.3 349.2,262.7 C337.1,265.9 324.9,268.6 312.7,270.7 C276.3,277 239.7,279.3 202.8,277.8 C159.2,276 116.2,270.2 74.5,257.4 C53.8,251 35.4,240.5 22.1,222.6 C11.7,208.6 6.2,192.7 3.6,175.7 C-0.4,149.2 -1.1,122.5 4.5,96.2 C13,56.9 38,32.2 75.1,18.9 C98.2,10.6 122.3,7.4 146.4,4.3 C158.6,2.8 170.9,1.5 183.2,1 C196.4,0.5 202.2,6 203.1,19.2 C203.5,25 203.3,30.9 202.4,36.6 C200.4,48.9 194.4,54.4 182,56.4 C162,59.6 141.9,62.6 121.9,66.1 C112.1,67.8 102.3,70 92.7,72.9 C75.7,78 64.8,89.8 60.4,106.8 C54.9,127.6 54.8,148.7 60.6,169.5 C65.6,187.5 77.3,199.5 95,205.4 C118.2,213 142.1,217.6 166.5,218.9 C190.6,220.2 214.8,221.3 238.9,220.7 C277,219.8 315,216.7 352.5,208.9 C353.9,208.4 355.4,208.2 358.2,207.8 Z" id="Shape"></path> <path d="M444.1,171.1 C444.1,196.9 444.1,222.7 444,248.6 C444,251.9 443.5,255.3 442.9,258.5 C441,267.4 435.7,273.2 426.6,275.4 C412.1,278.9 397.8,274.4 392.9,262.8 C389.8,255.4 388.6,246.7 388.4,238.5 C387.9,204.5 388.5,170.5 387.9,136.5 C387.7,125.8 386,114.9 383.1,104.6 C377.6,85.6 362.8,75.7 344.8,69.9 C321.8,62.5 297.9,60.1 274.2,57 C261.8,55.3 249.5,53.6 237.1,51.9 C235.8,51.7 234.5,51.4 233.2,51 C223.3,47.8 217.4,35.5 219.3,21.8 C221,8.8 228.1,0.5 239.5,1.3 C259.5,2.7 279.7,4.2 299.4,8.2 C328.1,14 356.6,21 384.6,29.4 C421.5,40.5 442.8,69.6 444.1,108.2 C444.6,129.1 444,150.1 444.1,171.1 C444,171.1 444.1,171.1 444.1,171.1 Z" id="Shape"></path> <path d="M214,139 L214,76.5 C214,75 213.6,73.2 214.2,72.1 C215.2,70.3 217.2,67.4 218.4,67.6 C220.3,67.8 222.2,70 223.4,71.9 C224.2,73.1 223.8,75.1 223.8,76.8 L223.8,202.2 C223.8,206.2 224.4,211.4 219,211.5 C213.3,211.7 214,206.4 214,202.5 C214,181.3 214,160.1 214,139 Z" id="Shape"></path> <path d="M145.2,152.2 C147.4,161.2 147,161.5 138.5,163.2 C124.2,166 110,165.1 96,161.6 C86,159.1 81.3,153 80.9,142.6 C80.2,125.3 86,118.3 103.3,115.9 C106.4,115.5 109.6,115.2 112.7,114.8 C115.4,114.5 117.5,115.4 117.6,118.4 C117.7,121.3 117.2,124.2 113.5,124.8 C109.1,125.5 104.6,126.2 100.2,127 C93.9,128.2 91.2,131.6 91,138.1 C90.6,146.1 93,150.3 99.5,151.9 C113.3,155.4 127.2,154.6 141.1,152.6 C142.4,152.5 143.7,152.4 145.2,152.2 Z" id="Shape"></path> <path d="M233.2,139.5 C233.2,128.9 233.3,118.2 233.2,107.6 C233.2,103.5 234.1,100.2 238.7,99.6 C242.1,99.2 244.5,102.4 244.5,107.3 L244.5,171.6 C244.5,175.3 243.6,178.3 239.6,179.2 C236.1,180 233.1,176.9 233.1,172.4 C233.1,161.5 233.2,150.5 233.2,139.5 Z" id="Shape"></path> <path d="M283,139.9 C283,150.6 282.9,161.2 283,171.9 C283,175.9 282,179.1 277.5,179.2 C273,179.3 271.8,176.2 271.8,172.1 C271.9,150.5 271.9,128.8 271.8,107.2 C271.8,103.2 272.8,100 277.3,100 C281.8,100 283,103 283,107.1 L283,139.9 Z" id="Shape"></path> <path d="M203,140 L203,172.4 C203,175.9 202.4,179 198.2,179.1 C193.9,179.2 193.2,176 193.2,172.6 L193.2,106.3 C193.2,102.8 194.2,99.6 198.3,99.7 C202.3,99.8 203.1,103 203.1,106.6 C203,117.7 203,128.8 203,140 Z" id="Shape"></path> <path d="M313.2,139.5 C313.2,128.5 313,117.5 313.4,106.6 C313.5,104.3 315.2,101.2 317.1,100 C319.9,98.3 322.9,101.4 323,105.8 C323.1,113.9 323,122.1 323,130.2 L323,172.1 C323,175.7 322.6,179.2 318,179.1 C313.4,179 313.1,175.4 313.1,171.9 C313.2,161.1 313.2,150.3 313.2,139.5 Z" id="Shape"></path> <path d="M161.1,146.8 L161.1,158.8 C161.1,162 160.2,164.5 156.4,164.5 C152.7,164.5 151,162.2 151,158.7 C150.9,153.2 150.9,147.7 150.9,142.3 C150.9,130.9 148.5,127.9 137.3,126 C133.2,125.3 129.1,124.9 125,124.3 C121.8,123.9 120.2,122 120.4,118.9 C120.6,115.5 123.1,114.3 126,114.9 C134.6,116.5 143.3,118 151.7,120.4 C157.8,122.2 160.7,127.5 161,133.8 C161.2,138.1 161,142.5 161.1,146.8 L161.1,146.8 Z" id="Shape"></path> <path d="M303.8,139.8 L303.8,154.8 C303.8,158.5 302.1,161 298.3,161.1 C294.4,161.2 292.6,158.6 292.6,155 C292.5,144.7 292.5,134.3 292.6,124 C292.6,120.3 294.4,117.6 298.2,117.7 C302.1,117.8 304.1,120.3 304,124.3 C303.7,129.5 303.8,134.7 303.8,139.8 Z" id="Shape"></path> <path d="M333.9,138.9 L333.9,124 C333.9,120.5 334.8,117.4 338.9,117.5 C342.6,117.6 343.7,120.4 343.7,123.7 L343.7,154.5 C343.7,157.9 342.9,161.1 338.6,161 C334.4,160.9 333.8,157.7 333.8,154.3 C334,149.1 333.9,144 333.9,138.9 L333.9,138.9 Z" id="Shape"></path> <path d="M263.8,139.3 L263.8,155.2 C263.8,158.6 262.4,161.1 258.6,161 C255,160.9 254,158.2 254,155.1 L254,123.7 C254,120.2 255.3,117.6 259,117.6 C262.8,117.6 263.9,120.5 263.9,123.8 C263.8,129 263.8,134.2 263.8,139.3 Z" id="Shape"></path> <path d="M361.7,139.7 C361.7,142.5 362.3,145.5 361.5,148.1 C360.9,150.2 358.5,151.8 357,153.7 C355.3,152 352.3,150.5 352.1,148.7 C351.4,142.6 351.4,136.4 352,130.3 C352.2,128.5 355.2,126.9 357,125.3 C358.6,127.1 360.9,128.7 361.5,130.9 C362.3,133.6 361.7,136.7 361.7,139.7 Z" id="Shape"></path> <path d="M185,139.8 L185,148.2 C185,151.3 183.4,153.8 180.4,153.4 C178.6,153.1 175.7,150.7 175.6,149 C175,142.6 175,136.1 175.6,129.7 C175.7,128.1 178.9,125.5 180.5,125.6 C182.1,125.7 184.4,128.4 184.8,130.4 C185.6,133.4 185,136.6 185,139.8 Z" id="Shape"></path>
</defs>
</svg>
