<?xml version="1.0" encoding="UTF-8"?>
<svg width="100px" height="64px" viewBox="0 0 100 64" version="1.1" xmlns="http://www.w3.org/2000/svg" xmlns:xlink="http://www.w3.org/1999/xlink">
    <!-- Generator: Sketch 41 (35326) - http://www.bohemiancoding.com/sketch -->
    <title>Shape@2x</title>
    <desc>Created with Sketch.</desc>
    <defs></defs>
    <g id="Page-1" stroke="none" stroke-width="1" fill="none" fill-rule="evenodd">
        <g id="Purple" transform="translate(-40.000000, -59.000000)" fill="#783BD2">
            <path d="M120.33158,106.506104 C122.536403,118.160168 122.536403,118.475143 112.142238,120.364991 C94.818629,123.514738 77.4950204,122.884788 60.4863865,118.790117 C45.0526262,115.010421 39.6980562,106.821079 40.0130309,88.8675207 C40.3280056,74.3786845 46.9424744,65.8743675 61.7462853,62.4096458 C67.4158299,61.149747 73.0853746,60.5197976 78.7549192,59.8898482 C82.2196409,59.5748735 85.6843626,59.5748735 85.6843626,64.6144687 C85.6843626,69.0241145 85.0544132,72.1738616 79.6998433,72.4888363 C73.715324,73.1187857 67.7308046,74.3786845 62.06126,75.6385833 C54.1868925,77.5284315 52.612019,83.8279255 52.612019,90.7573689 C52.612019,98.0017871 54.5018672,103.986306 62.06126,106.191129 C67.4158299,107.766003 72.7703999,108.710927 78.1249698,109.025902 C85.0544132,109.655851 92.2988313,109.655851 99.2282748,109.025902 C106.472693,109.025902 113.087162,107.766003 120.33158,106.506104 Z M92.613806,71.2289375 C87.9437905,70.2701404 87.9969092,60.9193879 92.613806,60 C97.2307028,59.0806121 116.551883,62.7246205 127.261023,66.5043169 C135.450365,69.3390892 139.860011,76.5835074 139.860011,85.7177737 C140.174986,95.4819895 139.860011,105.246205 139.860011,114.695446 C139.860011,118.790117 138.915087,121.939864 133.875492,121.939864 C128.835897,121.939864 127.261023,118.475143 127.261023,114.065497 L127.261023,92.0172677 C127.261023,80.3632038 123.796301,76.2685327 112.142238,74.0637098 C105.842744,72.803811 97.2838216,72.1877345 92.613806,71.2289375 Z" id="Shape"></path>
        </g>
    </g>
</svg>