<svg width="150" height="150" viewBox="0 0 72 72" version="1.1" xmlns="http://www.w3.org/2000/svg" xmlns:xlink="http://www.w3.org/1999/xlink" xmlns:figma="http://www.figma.com/figma/ns">
<title>kik</title>
<desc>Created using Figma</desc>
<g id="Canvas" transform="translate(-3951 -221)" figma:type="canvas">
<g id="kik" style="mix-blend-mode:normal;" figma:type="frame">
<g id="bg" style="mix-blend-mode:normal;" figma:type="ellipse">
<use xlink:href="#path0_fill" transform="translate(3951 221)" fill="#82BC23" style="mix-blend-mode:normal;"/>
</g>
<g id="icon" style="mix-blend-mode:normal;" figma:type="vector">
<use xlink:href="#path1_fill" transform="translate(3970.25 248.124)" fill="#FFFFFF" style="mix-blend-mode:normal;"/>
<use xlink:href="#path2_fill" transform="translate(3970.25 248.124)" fill="#FFFFFF" style="mix-blend-mode:normal;"/>
<use xlink:href="#path3_fill" transform="translate(3970.25 248.124)" fill="#FFFFFF" style="mix-blend-mode:normal;"/>
<use xlink:href="#path4_fill" transform="translate(3970.25 248.124)" fill="#FFFFFF" style="mix-blend-mode:normal;"/>
</g>
</g>
</g>
<defs>
<path id="path0_fill" d="M 70 35C 70 54.33 54.33 70 35 70C 15.67 70 0 54.33 0 35C 0 15.67 15.67 0 35 0C 54.33 0 70 15.67 70 35Z"/>
<path id="path1_fill" d="M 11.8217 14.1253L 11.8008 14.1253L 11.8042 5.95063L 11.8219 5.9507L 11.8215 5.91271C 11.8215 5.00202 12.5484 4.26397 13.4448 4.26397C 14.3414 4.26397 15.0679 5.00202 15.0679 5.91271L 15.0673 5.96203L 15.0867 5.9621L 15.0871 14.1255L 15.0677 14.1255C 15.0564 15.0258 14.3343 15.7523 13.4448 15.7523C 12.5555 15.7523 11.833 15.0258 11.8217 14.1253Z"/>
<path id="path2_fill" d="M 0.0354614 14.1235L 0.035675 14.091L 0 14.0896L 0.000213623 1.70219L 0.0369568 1.70258C 0.0363159 1.68362 0.0361023 1.66459 0.0361023 1.64547C 0.0361023 0.736599 0.757721 0 1.64746 0C 2.53741 0 3.25882 0.736599 3.25882 1.64547C 3.25882 1.6761 3.25818 1.70653 3.25647 1.73674L 3.27612 1.73696L 3.29257 7.77119L 6.32516 4.80545C 6.62509 4.47297 7.05939 4.26486 7.54132 4.26486C 8.44666 4.26486 9.18045 5.00113 9.18045 5.90956C 9.18045 6.34988 9.00806 6.74985 8.72714 7.04511L 8.74402 7.06082L 6.61014 9.16203L 9.59232 13.1823L 9.56989 13.1985C 9.73608 13.4575 9.83286 13.7668 9.83286 14.0989C 9.83286 15.0111 9.10355 15.7511 8.20377 15.7511C 7.59943 15.7511 7.0722 15.4177 6.79086 14.9224L 4.09152 11.3141L 3.26416 12.0815L 3.26395 14.2169L 3.2428 14.2161C 3.19537 15.0717 2.4964 15.7509 1.64041 15.7509C 0.753876 15.7509 0.0354614 15.0222 0.0354614 14.1235Z"/>
<path id="path3_fill" d="M 29.6866 7.70942C 30.6882 7.70942 31.5 8.5177 31.5 9.5149C 31.5 10.512 30.6882 11.3203 29.6866 11.3203C 28.6849 11.3203 27.8731 10.512 27.8731 9.5149C 27.8731 8.51793 28.6847 7.70942 29.6866 7.70942Z"/>
<path id="path4_fill" d="M 17.4188 14.1235L 17.419 14.091L 17.3834 14.0896L 17.3836 1.70219L 17.4203 1.70258C 17.4197 1.68362 17.4195 1.66459 17.4195 1.64547C 17.4195 0.736599 18.1411 0 19.031 0C 19.9208 0 20.6424 0.736599 20.6424 1.64547C 20.6424 1.6761 20.6418 1.70653 20.64 1.73674L 20.6595 1.73696L 20.6757 7.77119L 23.7085 4.80545C 24.0085 4.47295 24.4427 4.26486 24.9247 4.26486C 25.83 4.26486 26.5638 5.00113 26.5638 5.90956C 26.5638 6.34993 26.3914 6.74995 26.1105 7.04522L 26.1272 7.06082L 23.9935 9.16203L 26.9757 13.1823L 26.9532 13.1985C 27.1194 13.4575 27.2162 13.7668 27.2162 14.0989C 27.2162 15.0111 26.4871 15.7511 25.5871 15.7511C 24.9832 15.7511 24.4558 15.4178 24.1744 14.9226L 21.4749 11.3141L 20.6475 12.0815L 20.6473 14.2169L 20.6262 14.2161C 20.5789 15.0717 19.88 15.7509 19.024 15.7509C 18.1372 15.7509 17.4188 15.0222 17.4188 14.1235Z"/>
</defs>
</svg>
