<svg width="112" height="112" xmlns="http://www.w3.org/2000/svg">
 <title>Artbox</title>

 <g>
  <title>background</title>
  <rect x="-1" y="-1" width="114" height="114" id="canvas_background" fill="none"/>
 </g>
 <g>
  <title>Layer 1</title>
  <g id="kik_1_">
   <path fill="#3DB4E7" d="m103.209076,52.948215c3.381371,0 6.122124,3.324085 6.122124,7.423904c0,4.100964 -2.740753,7.423832 -6.122124,7.423832s-6.120796,-3.322868 -6.120796,-7.423832c-0.001328,-4.098522 2.739265,-7.423904 6.120796,-7.423904z" id="svg_1"/>
   <g id="kik">
    <path fill="#82BC23" d="m53.928009,79.332123l-11.093102,0l0.012264,-33.615158l11.080837,0.047573l0,33.567585l0,0z" id="svg_2"/>
    <path fill="#82BC23" d="m48.385517,72.464958c3.025768,0 5.478695,3.035141 5.478695,6.778358c0,3.743149 -2.45425,6.77829 -5.478695,6.77829c-3.025768,0 -5.481346,-3.035141 -5.481346,-6.77829c0,-3.743217 2.455578,-6.778358 5.481346,-6.778358zm0,-33.683884c3.025768,0 5.478695,3.035141 5.478695,6.779583s-2.45425,6.778286 -5.478695,6.778286c-3.025768,0 -5.481346,-3.036362 -5.481346,-6.778286c0,-3.744518 2.455578,-6.779583 5.481346,-6.779583zm-39.846672,33.85157c2.993123,0 5.417548,2.996346 5.417548,6.691994c0,3.694427 -2.424425,6.690781 -5.417548,6.690781c-2.990473,0 -5.417549,-2.996353 -5.417549,-6.690781c-0.001326,-3.696945 2.427076,-6.691994 5.417549,-6.691994zm0.024524,-51.385405c3.002735,0 5.437928,3.028877 5.437928,6.765839c0,3.736959 -2.435193,6.76576 -5.437928,6.76576c-3.004063,0 -5.44075,-3.028801 -5.44075,-6.76576c0,-3.736961 2.436687,-6.765839 5.44075,-6.765839z" id="svg_3"/>
    <path fill="#82BC23" d="m3.003148,28.246967l11.057805,0.142639l0.054351,24.81258l10.236573,-12.195538l8.166422,9.27425l-7.20401,8.639935l10.065399,16.531689l-8.975393,7.935593l-9.590487,-15.61721l-2.793616,3.155251l-0.001326,8.781273l-11.017041,-0.524208l0.001326,-50.936251l0,0l-0.000003,-0.000002z" id="svg_4"/>
    <path fill="#82BC23" d="m28.458204,38.784817c3.056921,0 5.533045,3.02758 5.533045,6.763317c0,3.73444 -2.476124,6.763321 -5.533045,6.763321c-3.054268,0 -5.531553,-3.028881 -5.531553,-6.763321c-0.001492,-3.735737 2.477285,-6.763317 5.531553,-6.763317l0,0zm2.237013,33.642643c3.035213,0 5.497749,3.042625 5.497749,6.795853c0,3.751999 -2.461044,6.794548 -5.497749,6.794548c-3.039354,0 -5.501726,-3.042549 -5.501726,-6.794548c0,-3.753227 2.462372,-6.795853 5.501726,-6.795853zm36.522305,0.205185c2.991798,0 5.417549,2.996346 5.417549,6.691994c0,3.694427 -2.425751,6.690781 -5.417549,6.690781c-2.994614,0 -5.417545,-2.996353 -5.417545,-6.690781c0,-3.696945 2.424427,-6.691994 5.417545,-6.691994zm0.023033,-51.385405c3.004059,0 5.44075,3.028877 5.44075,6.765839c0,3.736959 -2.435364,6.76576 -5.44075,6.76576c-3.004059,0 -5.437927,-3.028801 -5.437927,-6.76576c0,-3.736961 2.433868,-6.765839 5.437927,-6.765839z" id="svg_5"/>
    <path fill="#82BC23" d="m61.6805,28.246967l11.057804,0.142639l0.054352,24.81258l10.239227,-12.195538l8.163773,9.27425l-7.20269,8.639935l10.065567,16.531689l-8.976883,7.935593l-9.588997,-15.61721l-2.793785,3.155251l0,8.781273l-11.018368,-0.524208l0,-50.936251l0,0l0,-0.000002z" id="svg_6"/>
    <path fill="#82BC23" d="m87.135391,38.784817c3.056923,0 5.533043,3.02758 5.533043,6.763317c0,3.73444 -2.47612,6.763321 -5.533043,6.763321c-3.054268,0 -5.531555,-3.028881 -5.531555,-6.763321c0,-3.735737 2.477287,-6.763317 5.531555,-6.763317l0,0zm2.237183,33.642643c3.036697,0 5.499069,3.042625 5.499069,6.795853c0,3.751999 -2.461044,6.794548 -5.499069,6.794548s-5.500404,-3.042549 -5.500404,-6.794548c0,-3.753227 2.462372,-6.795853 5.500404,-6.795853z" id="svg_7"/>
   </g>
  </g>
 </g>
</svg>