<?xml version="1.0" encoding="iso-8859-1"?>
<!-- Generator: Adobe Illustrator 19.0.0, SVG Export Plug-In . SVG Version: 6.00 Build 0)  -->
<svg version="1.1" id="Capa_1" xmlns="http://www.w3.org/2000/svg" xmlns:xlink="http://www.w3.org/1999/xlink" x="0px" y="0px"
	 viewBox="0 0 487.622 487.622" style="enable-background:new 0 0 487.622 487.622;" xml:space="preserve">
<g>
	<g>
		<circle style="fill:#EED26A;" cx="243.811" cy="243.811" r="243.811"/>
		<circle style="fill:#C4E15E;" cx="243.811" cy="243.811" r="243.811"/>
		<path style="opacity:0.37;fill:#B5D24F;enable-background:new    ;" d="M482.236,294.931L262.143,93.248l-43.018,43.018
			l-36.666-43.018l-43.018,43.018l129.055,129.055L139.442,394.374l83.688,92.365c6.819,0.573,13.714,0.882,20.682,0.882
			C360.925,487.622,458.741,405.037,482.236,294.931z"/>
		<g>
			<rect x="139.442" y="93.248" style="fill:#FFFFFF;" width="43.018" height="43.018"/>
			<polygon style="fill:#FFFFFF;" points="311.514,222.302 348.179,222.302 348.179,179.284 305.161,179.284 305.161,222.302 
				268.497,222.302 268.497,265.32 305.161,265.32 305.161,308.338 348.179,308.338 348.179,265.32 311.514,265.32 			"/>
			<polygon style="fill:#FFFFFF;" points="268.497,265.32 225.478,265.32 225.478,308.338 262.143,308.338 262.143,351.357 
				305.161,351.357 305.161,308.338 268.497,308.338 			"/>
			<polygon style="fill:#FFFFFF;" points="225.478,308.338 182.459,308.338 182.459,351.357 219.125,351.357 219.125,394.374 
				262.143,394.374 262.143,351.357 225.478,351.357 			"/>
			<rect x="139.442" y="351.357" style="fill:#FFFFFF;" width="43.018" height="43.018"/>
			<polygon style="fill:#FFFFFF;" points="262.143,136.265 262.143,93.248 219.125,93.248 219.125,136.265 182.459,136.265 
				182.459,179.284 225.478,179.284 225.478,136.265 			"/>
			<polygon style="fill:#FFFFFF;" points="305.161,179.284 305.161,136.265 262.143,136.265 262.143,179.284 225.478,179.284 
				225.478,222.302 268.497,222.302 268.497,179.284 			"/>
			<rect x="348.179" y="222.302" style="fill:#FFFFFF;" width="43.019" height="43.018"/>
		</g>
	</g>
</g>
<g>
</g>
<g>
</g>
<g>
</g>
<g>
</g>
<g>
</g>
<g>
</g>
<g>
</g>
<g>
</g>
<g>
</g>
<g>
</g>
<g>
</g>
<g>
</g>
<g>
</g>
<g>
</g>
<g>
</g>
</svg>
