<svg width="112" height="112" xmlns="http://www.w3.org/2000/svg">
 <title>Artbox</title>

 <g>
  <title>background</title>
  <rect fill="none" id="canvas_background" height="114" width="114" y="-1" x="-1"/>
 </g>
 <g>
  <title>Layer 1</title>
  <g id="sms_x2F_text_1_">
   <circle id="svg_1" r="53.5" cy="56.500002" cx="56" fill="#262626"/>
   <path id="svg_2" d="m31.987322,45.101845c0.05641,-4.273659 1.415667,-7.644314 4.267099,-10.399975c0.906555,-0.877071 1.850716,-1.59391 3.139359,-1.715027c0.553894,-0.052155 1.100613,0.039116 1.649773,0.074757c0.416245,0.026077 0.835938,0.104454 1.248737,0.074757c1.028847,-0.074757 1.67905,0.439114 2.118835,1.305466c0.449116,0.886631 0.731304,1.843239 1.078224,2.770145c0.931244,2.488659 1.828327,4.988182 2.758419,7.476837c0.254055,0.676567 0.210564,1.287792 -0.092865,1.942772c-0.704315,1.517994 -1.898945,2.634834 -2.986637,3.840626c-0.135208,0.149509 -0.290371,0.280041 -0.430313,0.423615c-0.706615,0.728718 -0.801922,1.284168 -0.32338,2.187317c1.224049,2.311909 2.670292,4.475468 4.35408,6.471695c2.958363,3.505821 6.512962,6.220051 10.653034,8.157024c0.438496,0.205284 0.859478,0.448532 1.302708,0.640778c0.854885,0.371605 1.413372,0.27179 2.042477,-0.395073c1.403896,-1.49192 2.780811,-3.007454 4.024815,-4.641636c0.704315,-0.923431 1.268692,-1.097862 2.352798,-0.680042c1.155876,0.445053 2.232948,1.057438 3.324089,1.640129c2.124718,1.133354 4.230637,2.302345 6.361244,3.421501c0.856033,0.448677 1.248741,1.058746 1.176971,2.05925c-0.11985,1.685181 -0.524467,3.28981 -1.192329,4.825485c-0.368019,0.846214 -1.017075,1.499016 -1.71666,2.085327c-1.758995,1.475113 -3.727409,2.545593 -5.971985,3.042946c-2.365715,0.52459 -4.678604,0.409416 -6.991501,-0.420135c-3.572113,-1.278229 -7.119537,-2.60746 -10.456539,-4.436356c-3.526325,-1.934509 -6.566933,-4.50386 -9.349037,-7.399765c-2.941856,-3.064384 -5.437038,-6.471691 -7.711037,-10.062992c-1.507385,-2.380722 -2.89492,-4.805347 -3.765018,-7.500595c-0.537247,-1.661568 -0.837086,-3.363411 -0.865362,-4.78883z" fill="#F9F9F9" clip-rule="evenodd" fill-rule="evenodd"/>
  </g>
  <path id="svg_3" d="m57.333397,44.135891l10.239685,9.369953l14.426918,0c0,0 0.464943,-22.148977 -24.666603,-22.999998l0,13.630045z" fill="#FCFCFC"/>
  <rect id="svg_4" height="47" width="259.615" fill="none" y="1316.265" x="960.385"/>
 </g>
</svg>