<svg width="112" height="112" xmlns="http://www.w3.org/2000/svg">
 <title>Artbox</title>

 <g>
  <title>background</title>
  <rect x="-1" y="-1" width="114" height="114" id="canvas_background" fill="none"/>
 </g>
 <g>
  <title>Layer 1</title>
  <g id="sms_x2F_text">
   <circle fill="#262626" cx="56.500002" cy="55.499999" r="54.000002" id="svg_1"/>
   <path fill-rule="evenodd" clip-rule="evenodd" fill="#F9F9F9" d="m32.262905,43.996304c0.056938,-4.313229 1.428898,-7.715092 4.30698,-10.496269c0.915028,-0.885193 1.868011,-1.608669 3.168697,-1.730906c0.559071,-0.052639 1.110901,0.039478 1.665192,0.075447c0.420135,0.02632 0.84375,0.105421 1.260406,0.075447c1.038464,-0.075447 1.694744,0.443182 2.138641,1.317553c0.453312,0.894844 0.738136,1.86031 1.088299,2.795799c0.939945,2.5117 1.845413,5.034367 2.784203,7.546066c0.256428,0.682827 0.212528,1.299713 -0.093735,1.960758c-0.710899,1.532051 -1.916695,2.659229 -3.014553,3.876186c-0.136471,0.150898 -0.293083,0.282639 -0.434334,0.427536c-0.713219,0.735466 -0.809414,1.296059 -0.326405,2.207573c1.235493,2.333313 2.695251,4.516907 4.394775,6.531616c2.986012,3.538284 6.573833,6.277645 10.752598,8.232555c0.442593,0.207184 0.867508,0.452682 1.31488,0.646713c0.862873,0.375038 1.426582,0.2743 2.061565,-0.398735c1.417023,-1.50573 2.806801,-3.035301 4.062431,-4.684616c0.710899,-0.93198 1.280548,-1.108025 2.374786,-0.68634c1.166679,0.449177 2.253815,1.067234 3.355156,1.655315c2.144577,1.143848 4.27018,2.323666 6.4207,3.453182c0.864029,0.452835 1.260406,1.06855 1.187965,2.078316c-0.120964,1.70079 -0.529366,3.320274 -1.203468,4.870163c-0.37146,0.85405 -1.026581,1.512901 -1.732704,2.104637c-1.775436,1.48877 -3.762253,2.56916 -6.027802,3.071121c-2.387825,0.529449 -4.722336,0.413208 -7.056839,-0.424026c-3.605495,-1.290062 -7.186077,-2.631592 -10.554264,-4.477425c-3.55928,-1.952423 -6.628304,-4.54557 -9.436409,-7.468285c-2.969353,-3.092758 -5.487854,-6.531616 -7.783104,-10.156166c-1.521473,-2.402767 -2.921974,-4.849842 -3.800205,-7.570045c-0.542267,-1.676949 -0.84491,-3.394547 -0.873451,-4.833172l-0.000004,0z" id="svg_2"/>
  </g>
 </g>
</svg>