<svg width="70" height="70" viewBox="0 0 70 70" version="1.1" xmlns="http://www.w3.org/2000/svg" xmlns:xlink="http://www.w3.org/1999/xlink" xmlns:figma="http://www.figma.com/figma/ns">
<title>viber</title>
<desc>Created using Figma</desc>
<g id="Canvas" transform="translate(-3951 -131)" figma:type="canvas">
<g id="viber" style="mix-blend-mode:normal;" figma:type="frame">
<g id="bg" style="mix-blend-mode:normal;" figma:type="ellipse">
<use xlink:href="#path0_fill" transform="translate(3951 131)" fill="#675CA8" style="mix-blend-mode:normal;"/>
</g>
<g id="icon" style="mix-blend-mode:normal;" figma:type="vector">
<use xlink:href="#path1_fill" transform="translate(3968.5 151.125)" fill="#FFFFFF" style="mix-blend-mode:normal;"/>
</g>
</g>
</g>
<defs>
<path id="path0_fill" d="M 70 35C 70 54.33 54.33 70 35 70C 15.67 70 0 54.33 0 35C 0 15.67 15.67 0 35 0C 54.33 0 70 15.67 70 35Z"/>
<path id="path1_fill" fill-rule="evenodd" d="M 31.0221 27.0823C 29.7517 30.8694 26.6448 32.4379 22.9661 30.9357C 17.668 28.7723 13.1015 25.8619 9.36296 22.1141C 5.62443 18.3664 2.72103 13.7886 0.562927 8.4776C -0.935593 4.78994 0.629091 1.67539 4.40693 0.401881C 5.08514 0.173298 5.74904 0.15731 6.41572 0.403325C 8.02682 0.997374 12.1066 6.62655 12.198 8.3109C 12.2681 9.60267 11.3924 10.3023 10.5235 10.8935C 8.88191 12.0114 8.87275 13.4285 9.57421 15.009C 10.2803 16.5995 11.1858 17.9911 12.3309 19.1389C 13.4758 20.2868 14.864 21.1945 16.4507 21.9023C 18.0274 22.6056 19.441 22.5964 20.5562 20.9509C 21.1459 20.0796 21.8438 19.2018 23.1325 19.2721C 24.8127 19.3638 30.4282 23.4535 31.0209 25.0685C 31.266 25.7369 31.2501 26.4024 31.0221 27.0823ZM 25.7141 12.5123C 25.5726 10.8764 24.8131 9.29208 23.5754 8.05148C 22.281 6.75383 20.6005 5.95503 18.8434 5.80237C 18.3598 5.76038 17.8751 5.76977 17.4031 5.83011C 16.8128 5.90542 16.27 5.48652 16.1944 4.89309C 16.1188 4.29976 16.5373 3.75729 17.1292 3.68137C 17.7536 3.60153 18.3931 3.58905 19.0301 3.64424C 21.2932 3.84095 23.4501 4.86225 25.1034 6.51978C 26.7001 8.12028 27.6816 10.182 27.867 12.3252C 27.9183 12.9203 27.9068 13.5189 27.8325 14.1046C 27.7632 14.6516 27.2982 15.0512 26.7622 15.0513C 26.7167 15.0513 26.6708 15.0484 26.6246 15.0427C 26.0326 14.9673 25.6137 14.4251 25.6889 13.8317C 25.7438 13.3981 25.7523 12.9542 25.7141 12.5123ZM 22.1262 12.8241C 21.9791 11.1241 20.3333 9.55563 18.5323 9.39915C 18.389 9.38667 18.2464 9.38326 18.1087 9.38894C 17.5132 9.41276 17.0092 8.9491 16.9846 8.35144C 16.96 7.75378 17.4234 7.24927 18.0197 7.22462C 18.249 7.21533 18.4841 7.2207 18.719 7.24102C 21.5967 7.49106 24.0389 9.86127 24.279 12.6371C 24.3009 12.8909 24.3035 13.1451 24.2866 13.3929C 24.2478 13.9645 23.7731 14.4024 23.2098 14.4024C 23.1851 14.4024 23.1603 14.4016 23.1353 14.3998C 22.5399 14.3592 22.0901 13.8425 22.1307 13.2457C 22.1399 13.1089 22.1385 12.967 22.1262 12.8241ZM 31.3252 15.0967C 31.234 15.6233 30.7776 15.9946 30.2621 15.9946C 30.2006 15.9946 30.1385 15.9894 30.0758 15.9784C 29.488 15.8761 29.0941 15.3154 29.1962 14.726C 29.3398 13.8978 29.3753 13.048 29.302 12.2004C 29.0874 9.71923 27.958 7.33911 26.1219 5.49859C 24.229 3.60101 21.7545 2.43149 19.1541 2.20558C 18.3103 2.13204 17.4648 2.16133 16.6413 2.29234C 16.0514 2.386 15.4985 1.98298 15.405 1.39234C 15.3116 0.801489 15.7136 0.246638 16.3029 0.152874C 17.2997 -0.00566963 18.3218 -0.0410501 19.3408 0.0474537C 22.447 0.317401 25.3978 1.70932 27.6499 3.96689C 29.845 6.16742 31.1963 9.02512 31.4549 12.0134C 31.5443 13.0472 31.5007 14.0845 31.3252 15.0967Z"/>
</defs>
</svg>
