<svg width="112" height="112" xmlns="http://www.w3.org/2000/svg">
 <title>Artbox</title>

 <g>
  <title>background</title>
  <rect x="-1" y="-1" width="114" height="114" id="canvas_background" fill="none"/>
 </g>
 <g>
  <title>Layer 1</title>
  <g id="svg_1">
   <path fill-rule="evenodd" clip-rule="evenodd" fill="#189C0E" d="m1.998664,109.22274c3.097148,-9.1884 6.188209,-18.373169 9.292633,-27.553116c0.102164,-0.303734 0.048557,-0.519958 -0.1035,-0.776306c-3.48264,-5.861992 -5.761139,-12.162521 -6.717296,-18.910187c-1.805247,-12.727486 0.585068,-24.628838 7.420417,-35.533873c6.133414,-9.781328 14.647491,-16.781634 25.414525,-21.024129c6.753826,-2.66067 13.771523,-3.813671 21.011963,-3.517208c12.167038,0.496897 22.935265,4.694456 32.160927,12.624191c9.020142,7.753624 14.823898,17.498466 17.1716,29.164089c2.688492,13.356819 0.576599,25.999249 -6.506882,37.657528c-6.947159,11.437233 -16.941727,19.115517 -29.758286,23.057915c-6.419411,1.974243 -12.999199,2.604836 -19.682491,2.015541c-7.157726,-0.630516 -13.913929,-2.652138 -20.245729,-6.059975c-0.282141,-0.151863 -0.524185,-0.259979 -0.877008,-0.146973c-8.357119,2.68618 -16.719137,5.35775 -25.082344,8.030586c-0.988973,0.317078 -1.981658,0.632965 -2.966919,0.953674c-0.183688,0.057098 -0.356387,0.102036 -0.53161,0.018242z" id="svg_2"/>
   <path fill-rule="evenodd" clip-rule="evenodd" fill="#FDFDFD" d="m99.942474,54.273258c-0.091171,10.134815 -3.2005,19.232159 -9.563934,27.138828c-6.81218,8.465492 -15.590134,13.777122 -26.312027,15.697899c-11.247559,2.013168 -21.721317,-0.13607 -31.369148,-6.253151c-0.363663,-0.232018 -0.65189,-0.160393 -0.987637,-0.052277c-5.144442,1.648712 -10.287695,3.294899 -15.432137,4.943535c-0.12533,0.038857 -0.245758,0.086243 -0.3699,0.120277c-0.106916,0.027954 -0.239522,0.076523 -0.300405,-0.041306c-0.035341,-0.066811 -0.001187,-0.182266 0.030441,-0.267319c1.267549,-3.404198 2.333144,-6.876396 3.520358,-10.307289c0.581505,-1.681488 1.121578,-3.378693 1.700706,-5.061363c0.096073,-0.28067 0.070532,-0.473839 -0.098602,-0.710754c-3.362211,-4.733315 -5.718521,-9.924667 -6.998246,-15.587406c-0.914874,-4.043179 -1.246907,-8.137512 -0.991497,-12.283985c0.33337,-5.491447 1.643537,-10.730179 3.97178,-15.712494c2.806396,-6.0054 6.767189,-11.125051 11.898268,-15.324982c6.652847,-5.447698 14.255764,-8.744969 22.822109,-9.636729c11.927521,-1.244059 22.68713,1.8005 32.066036,9.294145c8.477547,6.770727 13.686584,15.565454 15.711899,26.227564c0.490334,2.581699 0.689758,5.187725 0.701935,7.816803l0,0.000004z" id="svg_3"/>
   <path fill-rule="evenodd" clip-rule="evenodd" fill="#189C0E" d="m30.109997,41.963696c0.064447,-4.706615 1.577753,-8.420624 4.750336,-11.454208c1.008427,-0.965914 2.058281,-1.754377 3.49482,-1.889187c0.615658,-0.058359 1.225079,0.043674 1.835686,0.082605c0.464642,0.029142 0.931805,0.114195 1.392879,0.081345c1.143406,-0.081345 1.867317,0.482363 2.356308,1.437302c0.499981,0.976738 0.814938,2.028891 1.200577,3.051821c1.037682,2.739651 2.033932,5.4939 3.069233,8.233543c0.282139,0.744717 0.233582,1.418987 -0.1035,2.138191c-0.78331,1.672958 -2.112926,2.902485 -3.324493,4.231598c-0.148495,0.164024 -0.32357,0.307362 -0.478153,0.467754c-0.785831,0.801811 -0.892895,1.414165 -0.361286,2.407959c1.361248,2.546474 2.969444,4.930111 4.846413,7.127922c3.291824,3.860981 7.250092,6.85215 11.858173,8.985519c0.486614,0.225945 0.956154,0.494453 1.450047,0.705864c0.950069,0.409393 1.574043,0.300095 2.272259,-0.434982c1.563202,-1.642555 3.098343,-3.313068 4.481567,-5.112309c0.78212,-1.018112 1.412331,-1.210094 2.617805,-0.749607c1.288193,0.489555 2.487579,1.163898 3.700485,1.805321c2.364769,1.250137 4.707718,2.536758 7.082291,3.76992c0.950066,0.494446 1.389168,1.165085 1.30883,2.266991c-0.132607,1.857674 -0.582695,3.625328 -1.327095,5.315262c-0.409996,0.931877 -1.133751,1.651085 -1.909935,2.297478c-1.957306,1.624313 -4.148041,2.802742 -6.647949,3.351921c-2.632362,0.578316 -5.207695,0.450699 -7.78289,-0.461678c-3.976681,-1.408081 -7.924107,-2.873268 -11.637947,-4.887619c-3.926792,-2.129738 -7.310978,-4.960518 -10.409313,-8.150864c-3.272373,-3.373795 -6.050701,-7.127922 -8.583424,-11.083668c-1.67873,-2.621815 -3.219952,-5.292202 -4.189474,-8.261421c-0.597244,-1.828457 -0.931801,-3.704296 -0.962248,-5.272774z" id="svg_4"/>
  </g>
 </g>
</svg>