<svg width="70" height="70" viewBox="0 0 70 70" version="1.1" xmlns="http://www.w3.org/2000/svg" xmlns:xlink="http://www.w3.org/1999/xlink" xmlns:figma="http://www.figma.com/figma/ns">
<title>wa</title>
<desc>Created using Figma</desc>
<g id="Canvas" transform="translate(-3951 -41)" figma:type="canvas">
<g id="wa" style="mix-blend-mode:normal;" figma:type="frame">
<g id="Vector" style="mix-blend-mode:normal;" figma:type="vector">
<use xlink:href="#path0_fill" transform="translate(3951 41)" fill="#30BE2D" style="mix-blend-mode:normal;"/>
</g>
<g id="Vector" style="mix-blend-mode:normal;" figma:type="vector">
<use xlink:href="#path1_fill" transform="translate(3970.25 60.25)" fill="#FFFFFF" style="mix-blend-mode:normal;"/>
</g>
</g>
</g>
<defs>
<path id="path0_fill" d="M 35 70C 54.33 70 70 54.33 70 35C 70 15.67 54.33 0 35 0C 15.67 0 0 15.67 0 35C 0 54.33 15.67 70 35 70Z"/>
<path id="path1_fill" fill-rule="evenodd" d="M 26.9072 4.57469C 23.9464 1.62255 20.0101 1.89125e-07 15.8156 1.89125e-07C 7.16876 1.89125e-07 0.133551 6.9995 0.129024 15.6058C 0.129024 18.3551 0.85337 21.0413 2.2251 23.4098L 2.59046e-07 31.5L 8.31414 29.3276C 10.6049 30.5715 13.1808 31.2251 15.8066 31.2273L 15.8134 31.2273C 15.8179 31.2273 15.8134 31.2273 15.8134 31.2273C 24.4603 31.2273 31.4955 24.2188 31.5 15.6148C 31.5 11.4457 29.8702 7.52458 26.9095 4.57244L 26.9072 4.57469ZM 15.8179 28.5884L 15.8111 28.5884C 13.4706 28.5884 11.1753 27.9574 9.17429 26.7788L 8.69894 26.4971L 3.76434 27.7817L 5.08174 22.9974L 4.77163 22.5016C 3.46781 20.4396 2.77968 18.0509 2.77968 15.599C 2.77968 8.44627 8.62877 2.62763 15.8179 2.62763C 19.3038 2.62763 22.5747 3.97975 25.0352 6.43611C 27.4957 8.88571 28.8516 12.1466 28.8493 15.6125C 28.8493 22.7653 22.998 28.5862 15.8111 28.5862L 15.8179 28.5884ZM 22.9595 18.8666C 22.5679 18.6728 20.6416 17.7286 20.2817 17.5979C 19.924 17.4695 19.6615 17.4041 19.3989 17.794C 19.1386 18.1861 18.3893 19.065 18.1607 19.3264C 17.9344 19.5855 17.7035 19.6193 17.3096 19.4233C 16.918 19.2272 15.6572 18.8148 14.1587 17.4852C 12.9952 16.4531 12.2075 15.1753 11.9789 14.7855C 11.748 14.3956 11.9517 14.1838 12.1486 13.99C 12.3252 13.8142 12.5402 13.5348 12.7372 13.3072C 12.9318 13.0773 12.9975 12.9128 13.1288 12.6536C 13.2601 12.3922 13.1967 12.1646 13.0948 11.9708C 12.9975 11.7748 12.212 9.85248 11.8883 9.07501C 11.5714 8.31331 11.2455 8.41698 11.0055 8.40346C 10.7792 8.39219 10.5166 8.38993 10.254 8.38993C 9.99371 8.38993 9.56816 8.48909 9.21278 8.87895C 8.8506 9.26881 7.83878 10.213 7.83878 12.1331C 7.83878 14.0486 9.2422 15.9055 9.4414 16.1669C 9.63607 16.4261 12.203 20.3653 16.1348 22.0532C 17.0697 22.4588 17.8008 22.6954 18.369 22.8757C 19.3083 23.1732 20.1617 23.1304 20.8363 23.0289C 21.59 22.9163 23.1564 22.087 23.4847 21.1765C 23.8083 20.2638 23.8083 19.4864 23.711 19.3219C 23.6137 19.1574 23.3488 19.0605 22.9595 18.8644L 22.9595 18.8666Z"/>
</defs>
</svg>
